<?xml version="1.0" ?><svg id="Layer_1" style="enable-background:new 0 0 96 96;" version="1.1" viewBox="0 0 96 96" xml:space="preserve" xmlns="http://www.w3.org/2000/svg" xmlns:xlink="http://www.w3.org/1999/xlink"><style type="text/css">
	.st0{fill:none;stroke:#000000;stroke-width:4;stroke-miterlimit:10;}
</style><g><path d="M87,9v67.4L48.8,86.6c-0.1,0-0.4,0.1-0.8,0.1s-0.8,0-0.8-0.1L9,76.4V9h36.6h4.9H87 M90.6,3H50.4c-1.3,0-3.6,0-4.9,0H5.4   C4.1,3,3,4.1,3,5.4v73.1c0,1.3,1.1,2.7,2.4,3.1l40.3,10.7c0.7,0.2,1.5,0.3,2.4,0.3s1.7-0.1,2.4-0.3l40.3-10.7   c1.3-0.3,2.4-1.7,2.4-3.1V5.4C93,4.1,91.9,3,90.6,3L90.6,3z"/></g><line class="st0" x1="3" x2="93" y1="18" y2="18"/><g><path class="st0" d="M4,70l41.4,11.3c1.4,0.4,3.7,0.4,5.1,0L92,70"/></g><g><path d="M32,36h8c5.1,0,9.3,1.9,9.3,7.6c0,5.5-4.2,8-9.1,8h-2.9V60H32V36z M39.8,47.3c2.9,0,4.3-1.3,4.3-3.8c0-2.5-1.6-3.4-4.4-3.4   h-2.4v7.1H39.8z"/><path d="M49.9,57.5l2.4-3.3c1.6,1.2,3.1,1.9,4.6,1.9c1.6,0,2.3-0.6,2.3-1.5c0-1.2-1.8-1.7-3.6-2.5c-2.1-0.8-4.7-2.3-4.7-5.3   c0-3.3,2.7-5.6,6.8-5.6c2.7,0,4.7,1.1,6.3,2.3l-2.4,3.2c-1.3-0.9-2.5-1.5-3.8-1.5c-1.4,0-2,0.5-2,1.4c0,1.2,1.6,1.6,3.5,2.3   c2.3,0.8,4.8,2.1,4.8,5.4c0,3.3-2.5,5.8-7.3,5.8C54.4,60,51.7,59,49.9,57.5z"/></g></svg>